<?xml version="1.0" encoding="UTF-8"?>
<svg version="1.1" xmlns="http://www.w3.org/2000/svg" width="81" height="87">
<path d="M0 0 C26.73 0 53.46 0 81 0 C81 28.71 81 57.42 81 87 C54.27 87 27.54 87 0 87 C0 58.29 0 29.58 0 0 Z " fill="#312E2E" transform="translate(0,0)"/>
<path d="M0 0 C1.794375 -0.00773438 1.794375 -0.00773438 3.625 -0.015625 C6.9286714 0.24438617 9.14804028 0.56713406 12 2.25 C12.75 4.23828125 12.75 4.23828125 13 6.5625 C13.76963569 11.2251473 15.45708131 13.07045759 19 16.25 C20.26948477 19.24235695 19.98401634 21.18861582 19 24.25 C19.99 24.25 20.98 24.25 22 24.25 C22 24.91 22 25.57 22 26.25 C22.66 26.25 23.32 26.25 24 26.25 C24.495 38.625 24.495 38.625 25 51.25 C18.07 51.25 11.14 51.25 4 51.25 C3.67 48.61 3.34 45.97 3 43.25 C2.67 45.89 2.34 48.53 2 51.25 C1.01 51.25 0.02 51.25 -1 51.25 C-1 47.95 -1 44.65 -1 41.25 C-1.66 41.25 -2.32 41.25 -3 41.25 C-3.33 44.55 -3.66 47.85 -4 51.25 C-5.98 51.25 -7.96 51.25 -10 51.25 C-10 48.28 -10 45.31 -10 42.25 C-11.32 41.92 -12.64 41.59 -14 41.25 C-14 40.26 -14 39.27 -14 38.25 C-14.66 38.25 -15.32 38.25 -16 38.25 C-16 39.57 -16 40.89 -16 42.25 C-17.98 42.25 -19.96 42.25 -22 42.25 C-22 36.97 -22 31.69 -22 26.25 C-18.7 26.25 -15.4 26.25 -12 26.25 C-12 27.9 -12 29.55 -12 31.25 C-11.34 31.25 -10.68 31.25 -10 31.25 C-10 28.61 -10 25.97 -10 23.25 C-12.31 23.25 -14.62 23.25 -17 23.25 C-16.50538294 18.50167623 -15.4800537 14.59096504 -13.6796875 10.17578125 C-12.84922394 8.05458973 -12.84922394 8.05458973 -12.625 4.875 C-12.41875 4.00875 -12.2125 3.1425 -12 2.25 C-8.03579938 0.08368962 -4.45736969 -0.0192128 0 0 Z " fill="#BA8871" transform="translate(44,12.75)"/>
<path d="M0 0 C1.65 0.33 3.3 0.66 5 1 C5.08636719 1.59167969 5.17273438 2.18335938 5.26171875 2.79296875 C6.27070544 8.46736179 7.60971114 11.05999718 12 15 C13.26948477 17.99235695 12.98401634 19.93861582 12 23 C12.99 23 13.98 23 15 23 C15 23.66 15 24.32 15 25 C12.03 25 9.06 25 6 25 C6 26.65 6 28.3 6 30 C2.91190305 31.76462683 1.76687864 32 -2 32 C-2 28.37 -2 24.74 -2 21 C-2.99 21.33 -3.98 21.66 -5 22 C-5.33 24.31 -5.66 26.62 -6 29 C-6.66 29 -7.32 29 -8 29 C-8.144375 27.88625 -8.28875 26.7725 -8.4375 25.625 C-8.78372035 22.17857953 -8.78372035 22.17857953 -10 20 C-7.69 20 -5.38 20 -3 20 C-3 16.7 -3 13.4 -3 10 C-5.64 10 -8.28 10 -11 10 C-10.97679687 10.69867188 -10.95359375 11.39734375 -10.9296875 12.1171875 C-10.91164062 13.02726562 -10.89359375 13.93734375 -10.875 14.875 C-10.85179687 15.77992187 -10.82859375 16.68484375 -10.8046875 17.6171875 C-11 20 -11 20 -13 22 C-13 17.05 -13 12.1 -13 7 C-11.68 7 -10.36 7 -9 7 C-9 5.68 -9 4.36 -9 3 C-7.68 3 -6.36 3 -5 3 C-5 4.32 -5 5.64 -5 7 C-4.01 7 -3.02 7 -2 7 C-1.34 4.69 -0.68 2.38 0 0 Z " fill="#5A3B31" transform="translate(51,14)"/>
<path d="M0 0 C1.25425781 0.01804687 2.50851563 0.03609375 3.80078125 0.0546875 C5.22970703 0.08949219 5.22970703 0.08949219 6.6875 0.125 C5.8125 5.875 5.8125 5.875 4.6875 8.125 C3.6975 8.125 2.7075 8.125 1.6875 8.125 C1.6875 6.805 1.6875 5.485 1.6875 4.125 C0.3675 4.125 -0.9525 4.125 -2.3125 4.125 C-2.3125 5.445 -2.3125 6.765 -2.3125 8.125 C-3.6325 8.125 -4.9525 8.125 -6.3125 8.125 C-5.9825 12.415 -5.6525 16.705 -5.3125 21.125 C-4.9825 17.825 -4.6525 14.525 -4.3125 11.125 C-1.6725 11.125 0.9675 11.125 3.6875 11.125 C3.6875 14.425 3.6875 17.725 3.6875 21.125 C2.264375 21.3415625 2.264375 21.3415625 0.8125 21.5625 C-2.2059494 21.95435399 -2.2059494 21.95435399 -4.3125 23.125 C-4.3125 26.755 -4.3125 30.385 -4.3125 34.125 C-7.2825 33.465 -10.2525 32.805 -13.3125 32.125 C-13.3125 30.145 -13.3125 28.165 -13.3125 26.125 C-12.9825 26.125 -12.6525 26.125 -12.3125 26.125 C-12.3125 27.775 -12.3125 29.425 -12.3125 31.125 C-11.6525 31.125 -10.9925 31.125 -10.3125 31.125 C-10.3125 28.485 -10.3125 25.845 -10.3125 23.125 C-12.6225 23.125 -14.9325 23.125 -17.3125 23.125 C-16.81788294 18.37667623 -15.7925537 14.46596504 -13.9921875 10.05078125 C-13.16172394 7.92958973 -13.16172394 7.92958973 -12.9375 4.75 C-12.73125 3.88375 -12.525 3.0175 -12.3125 2.125 C-8.24796549 -0.13222742 -4.57436779 -0.0855022 0 0 Z " fill="#5C4334" transform="translate(44.3125,12.875)"/>
<path d="M0 0 C2.97 0 5.94 0 9 0 C9 1.98 9 3.96 9 6 C10.423125 6.1546875 10.423125 6.1546875 11.875 6.3125 C15 7 15 7 17 10 C17.1953125 13.35546875 17.1953125 13.35546875 17.125 17.1875 C17.10695313 18.45980469 17.08890625 19.73210938 17.0703125 21.04296875 C17.04710938 22.01878906 17.02390625 22.99460937 17 24 C15.68 24 14.36 24 13 24 C13 21.03 13 18.06 13 15 C12.01 15 11.02 15 10 15 C9.67 14.01 9.34 13.02 9 12 C8.01 11.67 7.02 11.34 6 11 C6 12.65 6 14.3 6 16 C4.02 16 2.04 16 0 16 C0 10.72 0 5.44 0 0 Z " fill="#C38A72" transform="translate(22,39)"/>
<path d="M0 0 C0.66 0 1.32 0 2 0 C2.33 8.25 2.66 16.5 3 25 C-9 25 -9 25 -11 24 C-11 21.36 -11 18.72 -11 16 C-10.34 16 -9.68 16 -9 16 C-9 14.35 -9 12.7 -9 11 C-8.01 11 -7.02 11 -6 11 C-6 12.65 -6 14.3 -6 16 C-4.02 16 -2.04 16 0 16 C0 10.72 0 5.44 0 0 Z " fill="#583C31" transform="translate(66,39)"/>
<path d="M0 0 C0.66 0 1.32 0 2 0 C3.6371474 3.59435994 4.24140626 6.35976468 4.1953125 10.30078125 C4.18564453 11.76547852 4.18564453 11.76547852 4.17578125 13.25976562 C4.15902344 14.26716797 4.14226563 15.27457031 4.125 16.3125 C4.11597656 17.33923828 4.10695313 18.36597656 4.09765625 19.42382812 C4.07416201 21.94945899 4.04131131 24.4746081 4 27 C3.01 27 2.02 27 1 27 C1 24.69 1 22.38 1 20 C-1.31 20 -3.62 20 -6 20 C-5.50104522 12.84831485 -2.68436185 6.58708719 0 0 Z " fill="#CE937E" transform="translate(33,16)"/>
<path d="M0 0 C2.80863551 1.40431775 3.00033174 3.37463659 3.953125 6.22460938 C4.17484375 6.91361328 4.3965625 7.60261719 4.625 8.3125 C4.85445312 8.98990234 5.08390625 9.66730469 5.3203125 10.36523438 C6.44230901 13.78131304 7 16.3665148 7 20 C4.69 20 2.38 20 0 20 C0 22.31 0 24.62 0 27 C-0.99 27 -1.98 27 -3 27 C-3 20.07 -3 13.14 -3 6 C-2.34 6 -1.68 6 -1 6 C-1.0309375 4.7934375 -1.0309375 4.7934375 -1.0625 3.5625 C-1 1 -1 1 0 0 Z " fill="#AE8574" transform="translate(54,16)"/>
<path d="M0 0 C1.65 0 3.3 0 5 0 C5 2.97 5 5.94 5 9 C1 10 1 10 -2 9 C-2 10.65 -2 12.3 -2 14 C-2.99 14 -3.98 14 -5 14 C-5 16.64 -5 19.28 -5 22 C-6.32 22 -7.64 22 -9 22 C-9 17.05 -9 12.1 -9 7 C-6.03 6.01 -3.06 5.02 0 4 C0 2.68 0 1.36 0 0 Z " fill="#CF947C" transform="translate(59,41)"/>
<path d="M0 0 C2.875 0.3125 2.875 0.3125 6 1 C8.49118953 4.7367843 8.2065226 6.74451819 8.125 11.1875 C8.10695313 12.45980469 8.08890625 13.73210938 8.0703125 15.04296875 C8.03550781 16.50669922 8.03550781 16.50669922 8 18 C6.68 18 5.36 18 4 18 C4 15.03 4 12.06 4 9 C3.01 9 2.02 9 1 9 C0.67 6.03 0.34 3.06 0 0 Z " fill="#D3947B" transform="translate(31,45)"/>
<path d="M0 0 C2.97 0 5.94 0 9 0 C9 5.28 9 10.56 9 16 C7.02 16 5.04 16 3 16 C3 14.68 3 13.36 3 12 C3.99 11.67 4.98 11.34 6 11 C6.33 8.03 6.66 5.06 7 2 C5.35 2 3.7 2 2 2 C2 3.32 2 4.64 2 6 C-0.35438733 7.42944945 -1.48032433 8.08661261 -4.25 7.625 C-4.8275 7.41875 -5.405 7.2125 -6 7 C-4.7934375 6.6596875 -4.7934375 6.6596875 -3.5625 6.3125 C-2.716875 5.879375 -1.87125 5.44625 -1 5 C-0.10613836 2.45224694 -0.10613836 2.45224694 0 0 Z " fill="#B68E7C" transform="translate(57,39)"/>
<path d="M0 0 C3.96 0 7.92 0 12 0 C12 1.98 12 3.96 12 6 C8.04 6 4.08 6 0 6 C0 4.02 0 2.04 0 0 Z " fill="#B98D79" transform="translate(19,58)"/>
<path d="M0 0 C2.64 0 5.28 0 8 0 C8.09765625 6.15234375 8.09765625 6.15234375 8 8 C7 9 7 9 4 9.125 C1 9 1 9 0 8 C-0.14115161 5.32941149 -0.04247107 2.67567762 0 0 Z " fill="#B48A74" transform="translate(40,24)"/>
<path d="M0 0 C3.63 0 7.26 0 11 0 C11 1.98 11 3.96 11 6 C7.37 6 3.74 6 0 6 C0 4.02 0 2.04 0 0 Z " fill="#BD8F7B" transform="translate(58,58)"/>
<path d="M0 0 C4.29 0 8.58 0 13 0 C12 5 12 5 11 7 C10.01 7 9.02 7 8 7 C8 5.68 8 4.36 8 3 C6.68 3 5.36 3 4 3 C4 4.32 4 5.64 4 7 C3.01 7 2.02 7 1 7 C0.67 4.69 0.34 2.38 0 0 Z " fill="#BC907E" transform="translate(38,14)"/>
<path d="M0 0 C0.66 0 1.32 0 2 0 C2.33 0.99 2.66 1.98 3 3 C3.99 3.33 4.98 3.66 6 4 C6 6.97 6 9.94 6 13 C5.01 12.67 4.02 12.34 3 12 C3 10.35 3 8.7 3 7 C-0.96 7 -4.92 7 -9 7 C-6 4 -6 4 -2.8125 3.8125 C-1.4203125 3.9053125 -1.4203125 3.9053125 0 4 C0 2.68 0 1.36 0 0 Z " fill="#5E4032" transform="translate(28,51)"/>
<path d="M0 0 C2.5 0.9375 2.5 0.9375 5 3 C5.45787911 6.03816258 5.28780586 8.94925785 5 12 C3.35 11.67 1.7 11.34 0 11 C0 7.37 0 3.74 0 0 Z " fill="#D59678" transform="translate(53,23)"/>
<path d="M0 0 C0.99 0 1.98 0 3 0 C3 1.98 3 3.96 3 6 C1.35 6 -0.3 6 -2 6 C-1.97679687 6.77085938 -1.95359375 7.54171875 -1.9296875 8.3359375 C-1.91164062 9.33882812 -1.89359375 10.34171875 -1.875 11.375 C-1.85179687 12.37273438 -1.82859375 13.37046875 -1.8046875 14.3984375 C-2 17 -2 17 -4 19 C-4 14.05 -4 9.1 -4 4 C-2.68 4 -1.36 4 0 4 C0 2.68 0 1.36 0 0 Z " fill="#4F3C2A" transform="translate(42,17)"/>
<path d="M0 0 C0.33 0 0.66 0 1 0 C1.33 4.95 1.66 9.9 2 15 C4.31 15.33 6.62 15.66 9 16 C9 16.33 9 16.66 9 17 C5.7 17 2.4 17 -1 17 C-1.33 19.31 -1.66 21.62 -2 24 C-4 21 -4 21 -4 19 C-3.34 19 -2.68 19 -2 19 C-2.01160156 18.28972656 -2.02320312 17.57945313 -2.03515625 16.84765625 C-2.04417969 15.92855469 -2.05320312 15.00945313 -2.0625 14.0625 C-2.07410156 13.14597656 -2.08570312 12.22945312 -2.09765625 11.28515625 C-2 9 -2 9 -1 8 C-0.76924918 6.65252916 -0.58846937 5.29622435 -0.4375 3.9375 C-0.2209375 1.9884375 -0.2209375 1.9884375 0 0 Z " fill="#3C2A23" transform="translate(20,40)"/>
<path d="M0 0 C2.78557784 2.78557784 2.3669369 5.09784293 2.55859375 8.90625 C2.82722962 11.39017821 2.82722962 11.39017821 6 13 C4.35 13.33 2.7 13.66 1 14 C1 10.37 1 6.74 1 3 C0.01 3.33 -0.98 3.66 -2 4 C-2.33 6.31 -2.66 8.62 -3 11 C-3.66 11 -4.32 11 -5 11 C-5.144375 9.88625 -5.28875 8.7725 -5.4375 7.625 C-5.78372035 4.17857953 -5.78372035 4.17857953 -7 2 C-4.69 2 -2.38 2 0 2 C0 1.34 0 0.68 0 0 Z " fill="#492D23" transform="translate(48,32)"/>
<path d="M0 0 C2.31 0 4.62 0 7 0 C7 1.32 7 2.64 7 4 C5.35 3.67 3.7 3.34 2 3 C2 5.31 2 7.62 2 10 C2.66 10.33 3.32 10.66 4 11 C4 11.99 4 12.98 4 14 C2.68 14 1.36 14 0 14 C0 9.38 0 4.76 0 0 Z " fill="#CF9784" transform="translate(23,40)"/>
<path d="M0 0 C0.99 0 1.98 0 3 0 C3 3.63 3 7.26 3 11 C3.66 11.33 4.32 11.66 5 12 C4.01 12 3.02 12 2 12 C2 11.01 2 10.02 2 9 C0.35 9 -1.3 9 -3 9 C-2.34 8.67 -1.68 8.34 -1 8 C-1.020625 6.865625 -1.04125 5.73125 -1.0625 4.5625 C-1 1 -1 1 0 0 Z " fill="#946E60" transform="translate(46,35)"/>
<path d="M0 0 C0.66 0 1.32 0 2 0 C3.6371474 3.59435994 4.24140626 6.35976468 4.1953125 10.30078125 C4.18886719 11.27724609 4.18242188 12.25371094 4.17578125 13.25976562 C4.15902344 14.26716797 4.14226563 15.27457031 4.125 16.3125 C4.11597656 17.33923828 4.10695313 18.36597656 4.09765625 19.42382812 C4.07416201 21.94945899 4.04131131 24.4746081 4 27 C3.01 26.67 2.02 26.34 1 26 C1.66 26 2.32 26 3 26 C2.67 19.4 2.34 12.8 2 6 C-0.0745356 5.8509288 -0.0745356 5.8509288 -2 7 C-1.34 4.69 -0.68 2.38 0 0 Z " fill="#987463" transform="translate(33,16)"/>
<path d="M0 0 C0.66 0.33 1.32 0.66 2 1 C2 7.6 2 14.2 2 21 C1.67 21 1.34 21 1 21 C0.93941406 20.37351562 0.87882812 19.74703125 0.81640625 19.1015625 C0.69072266 17.87566406 0.69072266 17.87566406 0.5625 16.625 C0.48128906 15.81289063 0.40007813 15.00078125 0.31640625 14.1640625 C0.10909886 11.95727195 0.10909886 11.95727195 -1 10 C-1.09472912 8.48154798 -1.1298841 6.95889616 -1.125 5.4375 C-1.12886719 4.22900391 -1.12886719 4.22900391 -1.1328125 2.99609375 C-1 1 -1 1 0 0 Z " fill="#533931" transform="translate(49,22)"/>
<path d="M0 0 C1.28497537 3.85492611 0.4052209 5.40346836 -0.9375 9.1875 C-1.31777344 10.27417969 -1.69804687 11.36085938 -2.08984375 12.48046875 C-2.39019531 13.31191406 -2.69054687 14.14335938 -3 15 C-0.69 15 1.62 15 4 15 C4 16.98 4 18.96 4 21 C3.67 21 3.34 21 3 21 C3 19.35 3 17.7 3 16 C0.69 16 -1.62 16 -4 16 C-4.19286332 10.50339543 -3.90303246 6.18047725 -2 1 C-1.34 0.67 -0.68 0.34 0 0 Z " fill="#5D4136" transform="translate(30,21)"/>
<path d="M0 0 C2.475 0.495 2.475 0.495 5 1 C5 4.74161103 4.48661829 8.28953557 4 12 C3.01 12 2.02 12 1 12 C1.01160156 11.30132812 1.02320313 10.60265625 1.03515625 9.8828125 C1.04417969 8.97273438 1.05320313 8.06265625 1.0625 7.125 C1.07410156 6.22007813 1.08570313 5.31515625 1.09765625 4.3828125 C1.16249257 1.9831415 1.16249257 1.9831415 0 0 Z " fill="#8D6C62" transform="translate(42,52)"/>
<path d="M0 0 C0.33 0 0.66 0 1 0 C1 1.65 1 3.3 1 5 C3.31 5 5.62 5 8 5 C8.33 7.31 8.66 9.62 9 12 C8.34 12 7.68 12 7 12 C7 10.35 7 8.7 7 7 C3.7 7 0.4 7 -3 7 C-2.01 4.69 -1.02 2.38 0 0 Z " fill="#4B3125" transform="translate(25,32)"/>
<path d="M0 0 C0.66 0 1.32 0 2 0 C4.17364926 2.81769349 5.08677021 4.2190681 4.6875 7.8125 C4.460625 8.534375 4.23375 9.25625 4 10 C1.36 10 -1.28 10 -4 10 C-4 11.65 -4 13.3 -4 15 C-4.33 15 -4.66 15 -5 15 C-5 13.02 -5 11.04 -5 9 C-2.69 9 -0.38 9 2 9 C1.34 6.03 0.68 3.06 0 0 Z " fill="#5E433C" transform="translate(59,27)"/>
<path d="M0 0 C1.07765625 0.00902344 2.1553125 0.01804687 3.265625 0.02734375 C4.08546875 0.03894531 4.9053125 0.05054688 5.75 0.0625 C6.08 1.0525 6.41 2.0425 6.75 3.0625 C5.61820313 3.05089844 4.48640625 3.03929687 3.3203125 3.02734375 C1.83854331 3.01796546 0.35677235 3.0088653 -1.125 3 C-1.87136719 2.99162109 -2.61773437 2.98324219 -3.38671875 2.97460938 C-7.44845578 2.85561916 -7.44845578 2.85561916 -11.25 4.0625 C-10.92 3.0725 -10.59 2.0825 -10.25 1.0625 C-6.95298938 -0.28557677 -3.5145039 -0.03820113 0 0 Z " fill="#3D2A22" transform="translate(46.25,10.9375)"/>
<path d="M0 0 C1.32 0 2.64 0 4 0 C3.835 0.763125 3.67 1.52625 3.5 2.3125 C2.90854604 5.03596236 2.90854604 5.03596236 3 8 C3 8.99 3 9.98 3 11 C2.01 11 1.02 11 0 11 C0 7.37 0 3.74 0 0 Z " fill="#DC937B" transform="translate(50,48)"/>
<path d="M0 0 C0.66 0 1.32 0 2 0 C2.66 1.98 3.32 3.96 4 6 C4.66 6 5.32 6 6 6 C6.33 7.65 6.66 9.3 7 11 C6.01 11.495 6.01 11.495 5 12 C5 11.01 5 10.02 5 9 C4.01 8.67 3.02 8.34 2 8 C0.5522078 5.10441559 0 3.25811062 0 0 Z " fill="#47352F" transform="translate(56,18)"/>
<path d="M0 0 C2.31 0 4.62 0 7 0 C7 0.66 7 1.32 7 2 C5.35 2 3.7 2 2 2 C2 3.32 2 4.64 2 6 C-0.35438733 7.42944945 -1.48032433 8.08661261 -4.25 7.625 C-4.8275 7.41875 -5.405 7.2125 -6 7 C-4.7934375 6.6596875 -4.7934375 6.6596875 -3.5625 6.3125 C-2.716875 5.879375 -1.87125 5.44625 -1 5 C-0.10613836 2.45224694 -0.10613836 2.45224694 0 0 Z " fill="#B18270" transform="translate(57,39)"/>
<path d="M0 0 C1.2380014 3.57644848 0.74926071 6.33694766 0 10 C1.32 10.66 2.64 11.32 4 12 C1.69 12 -0.62 12 -3 12 C-2.49202991 7.6822542 -1.80317221 3.96697886 0 0 Z " fill="#B58873" transform="translate(30,24)"/>
<path d="M0 0 C2.0625 0.4375 2.0625 0.4375 4 1 C3.34 1 2.68 1 2 1 C2 4.3 2 7.6 2 11 C1.67 11 1.34 11 1 11 C0.63890458 9.35567294 0.28629924 7.7094792 -0.0625 6.0625 C-0.25972656 5.14597656 -0.45695312 4.22945312 -0.66015625 3.28515625 C-0.77230469 2.53105469 -0.88445313 1.77695312 -1 1 C-0.67 0.67 -0.34 0.34 0 0 Z " fill="#624135" transform="translate(41,53)"/>
<path d="M0 0 C1.32 0 2.64 0 4 0 C3.49396008 2.16874252 3.00016187 3.99967627 2 6 C1.01 5.67 0.02 5.34 -1 5 C-0.67 3.35 -0.34 1.7 0 0 Z " fill="#DA947C" transform="translate(42,26)"/>
<path d="M0 0 C2.97 0.495 2.97 0.495 6 1 C5.505 1.391875 5.01 1.78375 4.5 2.1875 C2.54406857 4.55091715 2.75792027 6.01435003 3 9 C2.34 9 1.68 9 1 9 C0.67 6.03 0.34 3.06 0 0 Z " fill="#C2917D" transform="translate(31,45)"/>
<path d="M0 0 C1.65 0.33 3.3 0.66 5 1 C3.60755361 3.78489278 1.44008012 5.12301529 -1 7 C-0.67 4.69 -0.34 2.38 0 0 Z " fill="#523B2F" transform="translate(51,14)"/>
<path d="M0 0 C0.33 0 0.66 0 1 0 C1.12375 0.804375 1.2475 1.60875 1.375 2.4375 C1.58125 3.283125 1.7875 4.12875 2 5 C2.66 5.33 3.32 5.66 4 6 C4 6.99 4 7.98 4 9 C2.68 9 1.36 9 0 9 C0 6.03 0 3.06 0 0 Z " fill="#C59A89" transform="translate(23,45)"/>
<path d="M0 0 C0.99 0 1.98 0 3 0 C3 2.31 3 4.62 3 7 C2.01 7 1.02 7 0 7 C0 4.69 0 2.38 0 0 Z " fill="#A57C75" transform="translate(40,36)"/>
</svg>
